<?xml version="1.0" encoding="UTF-8" standalone="no"?>
<!-- Created with Inkscape (http://www.inkscape.org/) -->

<svg
   version="1.1"
   id="svg1"
   width="2248.3723"
   height="2656.4238"
   viewBox="0 0 607.66819 717.95238"
   sodipodi:docname="favicon.svg"
   inkscape:version="1.4.4 (dcaf3e7, 2026-05-05)"
   xmlns:inkscape="http://www.inkscape.org/namespaces/inkscape"
   xmlns:sodipodi="http://sodipodi.sourceforge.net/DTD/sodipodi-0.dtd"
   xmlns="http://www.w3.org/2000/svg"
   xmlns:svg="http://www.w3.org/2000/svg">
  <defs
     id="defs1" />
  <sodipodi:namedview
     id="namedview1"
     pagecolor="#ffffff"
     bordercolor="#000000"
     borderopacity="0.25"
     inkscape:showpageshadow="2"
     inkscape:pageopacity="0.0"
     inkscape:pagecheckerboard="0"
     inkscape:deskcolor="#d1d1d1"
     inkscape:zoom="0.15410686"
     inkscape:cx="-2011.5912"
     inkscape:cy="1284.8228"
     inkscape:window-width="1902"
     inkscape:window-height="973"
     inkscape:window-x="0"
     inkscape:window-y="0"
     inkscape:window-maximized="0"
     inkscape:current-layer="g1"
     showgrid="true" />
  <g
     inkscape:groupmode="layer"
     inkscape:label="Image"
     id="g1"
     transform="translate(-383.83946,-320.46905)">
    <path
       style="fill:#ffffff"
       d="m 686.77735,981.19266 c -1.7412,-0.5041 -10.5162,-5.2313 -19.5,-10.505 C 634.243,951.29596 511.90923,879.98682 477.94317,860.32355 433.5939,834.64937 434.25272,835.07477 431.63955,830.42525 l -2.19638,-3.90792 v -153.6635 c 0,-167.4601 -0.39626,-156.1451 5.66072,-161.63997 1.56161,-1.41669 22.86428,-14.21738 47.33928,-28.44599 24.475,-14.22861 62.275,-36.28161 84,-49.00667 41.37471,-24.23454 63.87074,-37.32378 98,-57.02095 26.96323,-15.56141 26.45914,-15.49962 44,-5.39283 26.25363,15.12696 70.1706,40.64445 86,49.96939 9.075,5.34599 44.85,26.23563 79.5,46.42143 34.65,20.18581 65.26664,38.05468 68.03697,39.70861 2.77034,1.65393 6.14534,4.62464 7.5,6.60157 l 2.46303,3.59441 0.27388,153.57341 c 0.24456,137.13268 0.10689,154.01527 -1.28594,157.70094 -0.8579,2.27014 -2.33114,4.81896 -3.27388,5.66404 -1.8595,1.66688 -54.89907,32.70842 -55.88771,32.70842 -0.79602,0 -40.29562,-40.31243 -40.31294,-41.1425 -0.007,-0.35338 10.33659,-6.57955 22.98659,-13.83594 l 23,-13.19344 V 672.91931 546.72086 l -2.75,-1.57267 c -1.5125,-0.86497 -16.25,-9.456 -32.75,-19.09118 C 781.36982,479.00616 744.59234,457.631 719.1053,443.0393 l -27.83786,-15.93759 -19.66214,11.2789 c -21.68339,12.43836 -91.0091,52.73771 -126.16213,73.33862 -12.375,7.25218 -30.9375,18.06878 -41.25,24.03688 l -18.75,10.85109 v 126.29906 126.29907 l 4.25,2.44779 c 2.3375,1.34628 24.5,14.26772 49.25,28.71432 24.75,14.44659 47.475,27.69881 50.5,29.44937 3.025,1.75056 13.375,7.79108 23,13.42336 65.93832,38.58539 77.25578,45.04949 78.87276,45.04949 0.71692,0 11.27634,-5.7856 23.46537,-12.8569 12.18903,-7.0714 23.22645,-13.4151 24.52761,-14.0972 2.25908,-1.1842 3.25086,-0.3278 22,18.9977 10.79884,11.1309 19.76756,20.5745 19.93048,20.9858 0.16293,0.4114 -1.63707,1.8419 -4,3.179 -2.36292,1.337 -20.72122,12.0512 -40.79622,23.8094 -20.075,11.7581 -38.075,21.9445 -40,22.6364 -4.06743,1.462 -5.36074,1.4953 -9.66582,0.2488 z m 68.56116,-122.14747 c -30.46744,-30.92536 -70.13284,-71.17309 -88.14534,-89.43941 -18.0125,-18.26631 -32.75,-33.68503 -32.75,-34.26381 0,-0.71777 11.94343,-1.05233 37.5665,-1.05233 h 37.5665 l 31.1835,-23.82764 c 17.15092,-13.10521 33.55087,-25.10438 36.44432,-26.66482 6.74074,-3.6353 14.68592,-12.04158 17.72615,-18.7549 9.72985,-21.48502 1.09549,-44.9494 -20.26364,-55.06766 l -6.72333,-3.18498 -91.66499,-0.27994 -91.66499,-0.27994 -27.26509,-27.72006 -27.26509,-27.72006 118.76061,-0.25409 c 113.2522,-0.2423 119.19141,-0.16608 128.04869,1.64334 37.49827,7.6604 66.94252,36.18717 76.24934,73.87344 2.61578,10.59211 2.35771,33.24818 -0.5089,44.67725 -2.6502,10.56623 -9.41227,25.31541 -15.54949,33.91594 -5.43489,7.61632 -17.30021,18.99064 -25.76307,24.69698 -3.50736,2.36494 -18.21191,13.06029 -32.67678,23.76745 l -26.29976,19.46757 50.43174,50.60606 c 49.03446,49.20394 59.64179,60.07004 59.65079,61.10604 0.002,0.275 -1.23031,1.2094 -2.73933,2.0765 -4.10372,2.358 -42.26837,24.85324 -45.84834,27.02424 l -3.10467,1.8828 z M 551.94317,731.8045 c -13.43899,-5.45998 -22.61749,-20.5492 -21.13388,-34.74357 1.78433,-17.07157 14.76401,-30.20934 31.1449,-31.52424 12.4329,-0.99799 24.12968,4.82999 30.98898,15.44042 l 4,6.18747 67.83333,0.0625 c 42.11703,0.0388 67.70697,0.42069 67.5,1.00727 -0.18333,0.5196 -6.73308,6.08843 -14.555,12.37518 l -14.22167,11.43045 -46.27833,0.0277 c -25.45308,0.0152 -49.4291,0.0714 -53.28005,0.12481 l -7.00171,0.0972 -2.41998,4.5617 c -7.81826,14.73751 -26.74559,21.38491 -42.57659,14.95311 z m 18.97751,-20.68657 c 1.41438,-0.64443 3.51572,-2.6993 4.66962,-4.56636 4.93315,-7.98199 -1.02957,-19.26193 -10.1821,-19.26193 -7.97159,0 -12.96897,4.89676 -12.96129,12.70034 0.004,4.46361 3.07118,9.99178 6.25258,11.27084 3.21565,1.29282 9.22434,1.22257 12.22119,-0.14289 z"
       id="path1" />
  </g>
</svg>
