<?xml version="1.0" encoding="utf-8"?>
<!-- Generator: Adobe Illustrator 17.0.0, SVG Export Plug-In . SVG Version: 6.00 Build 0)  -->
<!DOCTYPE svg PUBLIC "-//W3C//DTD SVG 1.1//EN" "http://www.w3.org/Graphics/SVG/1.1/DTD/svg11.dtd">
<svg version="1.1" id="Layer_1" xmlns="http://www.w3.org/2000/svg" xmlns:xlink="http://www.w3.org/1999/xlink" x="0px" y="0px"
	 width="1141.389px" height="951.157px" viewBox="0 0 1141.389 951.157" enable-background="new 0 0 1141.389 951.157"
	 xml:space="preserve">
<g>
	<g>
		<path fill="#5CC8DC" d="M570.695,0C255.507,0,0,103.42,0,230.995v489.167c0,18.724,5.541,36.921,15.929,54.352
			c60.392,101.347,285.836,176.643,554.766,176.643s494.374-75.296,554.765-176.643c10.388-17.43,15.929-35.628,15.929-54.352
			V230.995C1141.389,103.42,885.882,0,570.695,0z"/>
		<path fill="#6ECDE2" d="M570.694,0C255.507,0,0,103.42,0,230.996c0,18.724,5.541,36.921,15.929,54.352
			c60.392,101.347,285.835,176.643,554.765,176.643s494.373-75.296,554.765-176.643c10.388-17.431,15.929-35.628,15.929-54.352
			C1141.389,103.42,885.882,0,570.694,0z"/>
		<polygon fill="#FFFFFF" points="786.523,280.605 613.995,261.895 660.224,331.73 687.899,320.525 869.707,394.115 
			940.656,365.397 758.851,291.807 		"/>
		<polygon fill="#FFFFFF" points="273.675,310.085 227.442,379.919 399.975,361.207 372.297,350.004 554.108,276.415 
			483.156,247.697 301.345,321.284 		"/>
		<polygon fill="#FFFFFF" points="738.861,100.976 911.394,82.266 865.16,152.101 837.485,140.899 655.678,214.486 584.728,185.77 
			766.536,112.181 		"/>
		<polygon fill="#FFFFFF" points="477.824,131.641 524.052,201.477 351.525,182.764 379.197,171.562 197.392,97.974 268.341,69.256 
			450.149,142.847 		"/>
	</g>
	<circle fill="#FFFFFF" cx="254.562" cy="598.693" r="57.069"/>
	<circle fill="#FFFFFF" cx="886.827" cy="598.693" r="57.069"/>
	<g>
		<path fill="#FFFFFF" d="M570.695,843.12c-26.73,0-52.334-11.407-70.235-31.294c-3.895-4.322-3.545-10.985,0.782-14.88
			c4.322-3.895,10.991-3.535,14.88,0.782c13.913,15.452,33.805,24.317,54.572,24.317c20.767,0,40.659-8.865,54.572-24.317
			c3.885-4.317,10.553-4.677,14.88-0.782c4.327,3.895,4.677,10.558,0.782,14.88C623.029,831.713,597.425,843.12,570.695,843.12z"/>
	</g>
</g>
</svg>
